<svg width="128" height="128" viewBox="0 0 128 128" fill="none" xmlns="http://www.w3.org/2000/svg">
<g clip-path="url(#clip0_8801_3886)">
<path d="M127.607 65.3862L125.229 62.8266C124.732 62.2919 124.702 61.4734 125.159 60.904L127.346 58.1743C127.854 57.5402 127.752 56.6138 127.118 56.1055L124.393 53.9196C123.824 53.4628 123.675 52.6579 124.044 52.0277L125.811 49.0084C126.221 48.307 125.986 47.4055 125.285 46.9948L122.271 45.2291C121.641 44.8601 121.377 44.0852 121.65 43.4082L122.958 40.1636C123.262 39.4099 122.898 38.5523 122.145 38.248L118.906 36.9402C118.229 36.667 117.855 35.9389 118.027 35.229L118.849 31.8286C119.04 31.0387 118.555 30.2432 117.766 30.052L114.371 29.2298C113.662 29.058 113.186 28.392 113.252 27.6653L113.571 24.1812C113.645 23.3718 113.05 22.6554 112.241 22.5812L108.763 22.2623C108.036 22.1957 107.468 21.6062 107.428 20.8773L107.237 17.384C107.192 16.5725 106.499 15.9504 105.687 15.995L102.2 16.1863C101.472 16.2261 100.824 15.7258 100.679 15.0105L99.9809 11.5823C99.8188 10.7858 99.0421 10.2716 98.2459 10.434L94.8236 11.1314C94.1086 11.2769 93.3951 10.8765 93.1468 10.1897L91.9575 6.89969C91.6813 6.13535 90.838 5.73964 90.074 6.01612L86.7899 7.20469C86.1038 7.45301 85.3395 7.16044 84.9943 6.51752L83.339 3.43564C82.9543 2.71957 82.0627 2.45114 81.347 2.83587L78.2706 4.49036C77.628 4.83596 76.8293 4.65786 76.3937 4.07199L74.3077 1.2644C73.8231 0.611963 72.9019 0.476283 72.2498 0.96122L69.447 3.04616C68.8615 3.48172 68.0452 3.42211 67.5296 2.90572L65.0573 0.431665C64.4828 -0.143237 63.5517 -0.143237 62.9772 0.431665L60.5075 2.9028C59.9915 3.41919 59.1756 3.4788 58.59 3.04323L55.7843 0.955734C55.1322 0.470797 54.211 0.606477 53.7264 1.25891L51.6426 4.06357C51.2074 4.64945 50.4087 4.82755 49.7657 4.48195L46.6861 2.82563C45.9703 2.4409 45.0787 2.70933 44.694 3.4254L43.0406 6.50362C42.6954 7.14655 41.931 7.43912 41.245 7.1908L37.9572 6.00076C37.1932 5.72428 36.3502 6.11999 36.0737 6.88433L34.8859 10.1706C34.6376 10.8571 33.9241 11.2579 33.2091 11.1124L29.7831 10.4142C28.9873 10.2518 28.2105 10.766 28.0481 11.5625L27.3511 14.9871C27.2055 15.7024 26.5579 16.2031 25.8294 16.1629L22.3383 15.9712C21.5271 15.9266 20.8337 16.5487 20.7891 17.3602L20.5978 20.8499C20.558 21.5787 19.99 22.1683 19.2633 22.2348L15.7814 22.5537C14.9724 22.628 14.3767 23.344 14.4509 24.1537L14.7694 27.6339C14.836 28.3609 14.3598 29.0269 13.6507 29.1984L10.2525 30.0212C9.46291 30.2125 8.97798 31.0079 9.16888 31.7979L9.99028 35.1946C10.1618 35.9041 9.78767 36.6323 9.1111 36.9058L5.86868 38.2151C5.1153 38.5194 4.75105 39.3769 5.05533 40.1307L6.36239 43.3713C6.63558 44.0482 6.37117 44.8232 5.74177 45.1922L2.72463 46.96C2.02356 47.3707 1.78804 48.2722 2.19837 48.9737L3.96294 51.9893C4.33158 52.6195 4.1831 53.4244 3.61368 53.8812L0.885818 56.0696C0.252035 56.578 0.150367 57.5043 0.658344 58.1385L2.84312 60.8652C3.29953 61.4346 3.26954 62.2531 2.7729 62.7878L0.39247 65.3503C-0.16049 65.9457 -0.126479 66.8768 0.468538 67.4305L3.02671 69.8099C3.56102 70.3069 3.65062 71.1209 3.237 71.7222L1.25482 74.6044C0.79439 75.274 0.96335 76.1905 1.63261 76.6513L4.50968 78.6324C5.11055 79.0463 5.31754 79.8385 4.99608 80.4938L3.4546 83.6339C3.09656 84.3635 3.39718 85.2452 4.12605 85.6036L7.26058 87.1444C7.91558 87.4662 8.23558 88.2199 8.01249 88.9151L6.94424 92.2464C6.69592 93.0203 7.12198 93.849 7.89546 94.0977L11.2209 95.1656C11.9158 95.3887 12.3418 96.0875 12.2226 96.808L11.6503 100.26C11.5175 101.062 12.0591 101.819 12.8604 101.952L16.3058 102.524C17.0255 102.644 17.5489 103.273 17.5357 104.003L17.4717 107.501C17.4567 108.314 18.1033 108.985 18.9155 109L22.4074 109.064C23.137 109.077 23.7463 109.624 23.8391 110.348L24.285 113.818C24.3884 114.624 25.1257 115.194 25.9314 115.09L29.3954 114.644C30.1192 114.551 30.8016 115.003 30.9991 115.706L31.9452 119.074C32.165 119.857 32.9772 120.313 33.7591 120.093L37.1212 119.147C37.8237 118.949 38.5646 119.297 38.862 119.964L40.2879 123.158C40.6192 123.9 41.4889 124.233 42.2305 123.902L45.4192 122.476C46.0855 122.179 46.8689 122.415 47.2602 123.031L49.136 125.984C49.5719 126.67 50.4807 126.872 51.1664 126.436L54.1137 124.561C54.7296 124.17 55.5389 124.289 56.0158 124.841L58.3011 127.489C58.8322 128.104 59.7607 128.172 60.3758 127.641L63.0192 125.357C63.5714 124.879 64.3895 124.879 64.9418 125.357L67.5881 127.644C68.2028 128.175 69.1318 128.107 69.6628 127.492L71.9456 124.847C72.4225 124.294 73.2321 124.175 73.8476 124.567L76.7982 126.444C77.4839 126.88 78.3927 126.677 78.8287 125.991L80.7022 123.042C81.0935 122.426 81.8773 122.19 82.5432 122.487L85.7356 123.914C86.4772 124.246 87.3469 123.913 87.6782 123.171L89.1027 119.98C89.4004 119.313 90.1413 118.966 90.8435 119.163L94.2095 120.11C94.9914 120.33 95.8037 119.874 96.0235 119.091L96.9685 115.727C97.166 115.024 97.8484 114.573 98.5721 114.665L102.04 115.112C102.845 115.215 103.583 114.646 103.686 113.84L104.132 110.373C104.225 109.649 104.834 109.103 105.564 109.089L109.06 109.025C109.872 109.01 110.518 108.34 110.504 107.527L110.44 104.033C110.427 103.303 110.95 102.674 111.67 102.554L115.119 101.982C115.92 101.849 116.462 101.091 116.329 100.289L115.757 96.8413C115.638 96.1212 116.064 95.4219 116.759 95.1992L120.088 94.1302C120.862 93.8819 121.287 93.0532 121.039 92.279L119.972 88.9514C119.749 88.2561 120.07 87.5028 120.724 87.1806L123.862 85.638C124.592 85.2796 124.892 84.3975 124.534 83.6682L122.994 80.5315C122.672 79.8762 122.879 79.084 123.48 78.67L126.361 76.6868C127.03 76.226 127.199 75.3095 126.738 74.6399L124.758 71.761C124.345 71.1597 124.434 70.3456 124.969 69.8486L127.53 67.4667C128.125 66.9134 128.159 65.9819 127.606 65.3866L127.607 65.3862Z" fill="#2C0D4C"/>
<path d="M108.407 58.2002L109.868 62.6952H114.594L110.771 65.4732L112.231 69.9678L108.407 67.1898L104.584 69.9678L106.044 65.4732L102.221 62.6952H106.947L108.407 58.2002Z" fill="white"/>
<path d="M19.595 58.2002L21.0557 62.6952H25.7818L21.9582 65.4732L23.4185 69.9678L19.595 67.1898L15.7714 69.9678L17.2317 65.4732L13.4082 62.6952H18.1347L19.595 58.2002Z" fill="white"/>
<path d="M28.936 90.613L31.3545 93.8028L27.411 96.7943C27.1565 96.6784 26.8884 96.5197 26.6053 96.3185C26.3223 96.1174 26.0399 95.898 25.7591 95.6599C25.4775 95.4218 25.2142 95.1761 24.9691 94.923C24.7237 94.6695 24.5208 94.4373 24.3609 94.2263C24.1664 93.9699 23.9854 93.6799 23.8168 93.3563C23.6485 93.0322 23.5165 92.687 23.4222 92.3195C23.3274 91.9519 23.2839 91.5661 23.292 91.162C23.2996 90.7579 23.3805 90.3435 23.533 89.9189C23.6855 89.4943 23.9283 89.0668 24.2604 88.6364C24.5928 88.2063 25.0339 87.7824 25.5835 87.3651C26.4195 86.731 27.1949 86.3327 27.9087 86.1714C28.6226 86.0098 29.2798 86.016 29.8807 86.1901C30.4812 86.3642 31.029 86.6641 31.5242 87.0901C32.0194 87.5162 32.4728 88.0007 32.8843 88.5438C33.0785 88.8002 33.2613 89.0803 33.4325 89.3842C33.6033 89.6881 33.7536 89.9719 33.8827 90.2364C34.0118 90.5008 34.15 90.8083 34.2981 91.1598L32.9534 92.1798C32.832 91.832 32.7117 91.5284 32.5921 91.2688C32.4721 91.0091 32.3291 90.7228 32.1631 90.4093C31.9967 90.0959 31.8076 89.7997 31.5962 89.521C31.2989 89.129 30.9837 88.8068 30.6501 88.5548C30.3166 88.3028 29.9556 88.1434 29.5665 88.0761C29.1774 88.0088 28.7568 88.049 28.3048 88.196C27.8524 88.343 27.3627 88.6166 26.8357 89.0167C26.361 89.3766 25.9939 89.7415 25.7342 90.1109C25.4742 90.4803 25.3045 90.8434 25.2255 91.2007C25.1461 91.5577 25.1523 91.9066 25.2441 92.2467C25.3359 92.5868 25.4932 92.9039 25.7163 93.1983C25.9507 93.5073 26.1581 93.7538 26.3391 93.9374C26.5198 94.121 26.6774 94.2625 26.8123 94.3623C26.9586 94.4768 27.0961 94.5569 27.2252 94.6015L28.9539 93.2901L27.659 91.5822L28.9357 90.6134L28.936 90.613Z" fill="white"/>
<path d="M32.9763 102.943C32.4856 102.557 32.1027 102.132 31.828 101.67C31.5534 101.208 31.3837 100.734 31.3189 100.25C31.2538 99.7663 31.2886 99.2857 31.4235 98.8077C31.5577 98.3301 31.7889 97.8832 32.1158 97.4667L36.0063 92.5142L37.5686 93.7422L33.5381 98.8732C33.3746 99.0817 33.2404 99.2978 33.1362 99.5227C33.0319 99.7473 32.9855 99.9788 32.9972 100.216C33.0089 100.454 33.0868 100.696 33.2309 100.942C33.3746 101.187 33.6142 101.442 33.9491 101.705C34.2838 101.968 34.5902 102.137 34.8689 102.211C35.1472 102.286 35.4043 102.296 35.6402 102.241C35.8757 102.185 36.0922 102.079 36.2886 101.921C36.485 101.762 36.6649 101.579 36.8288 101.371L40.8158 96.2957L42.3781 97.5237L38.4877 102.476C38.1603 102.893 37.7826 103.224 37.3543 103.471C36.9257 103.718 36.4689 103.866 35.9833 103.918C35.4976 103.969 34.9998 103.918 34.4897 103.763C33.9795 103.608 33.4748 103.335 32.9767 102.943L32.9763 102.943Z" fill="white"/>
<path d="M46.3815 107.801L42.931 106.305L41.2195 108.114L39.2402 107.255L46.5271 99.6069L48.8055 100.595L48.2112 111.146L46.232 110.287L46.3808 107.8L46.3815 107.801ZM46.4931 105.901C46.5249 105.399 46.5516 104.962 46.5732 104.591C46.5951 104.219 46.6178 103.827 46.6419 103.414C46.6657 103.002 46.6862 102.645 46.7037 102.343L45.4654 103.631C45.3133 103.792 45.1619 103.951 45.0119 104.107C44.8616 104.263 44.7296 104.402 44.6155 104.522C44.5014 104.643 44.3763 104.777 44.2406 104.924L46.4931 105.901Z" fill="white"/>
<path d="M58.4611 113.277L56.2709 112.868L55.8485 109.398C55.817 109.258 55.7735 109.129 55.7179 109.013C55.659 108.915 55.5877 108.821 55.504 108.728C55.4202 108.635 55.2992 108.574 55.1412 108.544L53.9972 108.331L53.2574 112.307L51.3184 111.945L53.1327 102.195L55.9088 102.713C56.4109 102.807 56.8798 102.938 57.3153 103.105C57.7509 103.273 58.1181 103.495 58.418 103.773C58.7175 104.05 58.9311 104.39 59.058 104.794C59.1849 105.198 59.1948 105.688 59.0876 106.265C59.032 106.562 58.9402 106.81 58.8122 107.007C58.6838 107.204 58.5379 107.367 58.3748 107.496C58.2113 107.624 58.0417 107.722 57.8654 107.79C57.6891 107.858 57.5282 107.908 57.383 107.938C57.2378 107.969 57.0725 107.991 56.8871 108.005C57.1193 108.048 57.3047 108.138 57.4433 108.274C57.5816 108.411 57.6873 108.553 57.7608 108.701C57.8343 108.85 57.8881 109.038 57.9228 109.266L58.4611 113.277V113.277ZM55.0936 106.861C55.3167 106.903 55.5361 106.927 55.7512 106.933C55.9666 106.94 56.1641 106.912 56.3444 106.849C56.5243 106.787 56.6816 106.679 56.8158 106.526C56.95 106.373 57.0425 106.162 57.0926 105.892C57.1427 105.623 57.1398 105.394 57.0835 105.205C57.0268 105.017 56.9288 104.859 56.7891 104.732C56.649 104.604 56.4753 104.505 56.2676 104.432C56.0595 104.36 55.8302 104.3 55.5793 104.253L54.7842 104.105L54.2989 106.713L55.094 106.861L55.0936 106.861Z" fill="white"/>
<path d="M67.681 110.885L63.9255 111.07L63.1912 113.45L61.0371 113.556L64.1888 103.471L66.6691 103.349L70.802 113.075L68.648 113.181L67.6818 110.885L67.681 110.885ZM66.9408 109.131C66.7474 108.667 66.578 108.264 66.4332 107.92C66.2884 107.577 66.1355 107.215 65.9746 106.835C65.8137 106.455 65.6744 106.125 65.5562 105.847L65.0154 107.55C64.9499 107.762 64.8844 107.971 64.819 108.178C64.7531 108.385 64.6961 108.567 64.6471 108.726C64.5981 108.884 64.545 109.06 64.4884 109.252L66.9401 109.131H66.9408Z" fill="white"/>
<path d="M81.9785 109.959L79.4847 110.732L73.7967 104.695L76.0016 111.811L74.199 112.37L71.2634 102.896L73.7572 102.123L79.4412 108.146L77.2407 101.044L79.0433 100.485L81.9789 109.959H81.9785Z" fill="white"/>
<path d="M86.6254 96.1914L87.4015 97.5292L84.9471 98.9536L89.1477 106.195L87.4417 107.185L83.2411 99.9436L80.7743 101.375L79.9983 100.037L86.6254 96.1914Z" fill="white"/>
<path d="M94.5887 100.309L97.4771 97.7492L98.5213 98.9283L94.1462 102.806L87.5703 95.3816L91.9453 91.5039L92.7455 92.8995L90.1014 95.243L91.7102 97.0591L94.3543 94.7156L95.3984 95.8947L92.7543 98.2382L94.5887 100.309Z" fill="white"/>
<path d="M101.131 93.4569L103.452 90.3728L104.71 91.3204L101.194 95.9917L93.2734 90.0243L96.7898 85.353L97.8511 86.5613L95.7259 89.3843L97.6635 90.8442L99.7886 88.0213L101.046 88.9688L98.9212 91.7918L101.131 93.4565L101.131 93.4569Z" fill="white"/>
<path d="M26.2579 32.2533L34.3767 37.6878L33.3428 39.233L26.7805 34.84L31.8273 41.4982L30.8479 42.9621L22.77 40.8348L29.3324 45.2277L28.2985 46.7729L20.1797 41.3384L21.8276 38.8753L29.3167 40.8776L24.61 34.716L26.2579 32.2529V32.2533Z" fill="white"/>
<path d="M32.975 25.8755C33.3586 25.5646 33.8132 25.2893 34.338 25.0493C34.8632 24.8098 35.4271 24.688 36.0305 24.6851C36.6336 24.6822 37.263 24.8376 37.9191 25.1518C38.5748 25.4659 39.2228 26.0174 39.8617 26.807C40.5069 27.6035 40.9135 28.3539 41.0814 29.0572C41.2493 29.7608 41.2665 30.4038 41.1326 30.986C40.9988 31.5686 40.7588 32.0897 40.4125 32.5505C40.0662 33.0113 39.7012 33.3971 39.3176 33.708C38.9339 34.0192 38.4812 34.2961 37.9589 34.5396C37.4367 34.7832 36.8753 34.9116 36.2745 34.9244C35.6736 34.9375 35.0468 34.7891 34.3936 34.4786C33.7404 34.1684 33.0916 33.6147 32.4462 32.8182C31.8069 32.029 31.4017 31.2808 31.2309 30.5735C31.0597 29.8665 31.0404 29.2167 31.1716 28.6238C31.3033 28.0314 31.5407 27.5029 31.8841 27.0385C32.2275 26.5744 32.591 26.1867 32.9746 25.8755H32.975ZM38.359 32.5235C38.6629 32.277 38.9014 31.9939 39.074 31.6739C39.2466 31.3539 39.3377 31.0076 39.3468 30.6338C39.356 30.2604 39.274 29.8592 39.1003 29.4302C38.9266 29.0013 38.6494 28.5514 38.268 28.0804C37.8986 27.624 37.5219 27.2667 37.1383 27.0078C36.7546 26.7488 36.378 26.5835 36.0079 26.5115C35.6378 26.4398 35.2772 26.4533 34.9257 26.5521C34.5743 26.6512 34.2466 26.8238 33.9427 27.0703C33.6388 27.3168 33.4018 27.6017 33.2321 27.9253C33.0624 28.249 32.9739 28.6023 32.9669 28.9859C32.96 29.3695 33.0415 29.774 33.2123 30.1993C33.3831 30.625 33.6563 31.0694 34.0315 31.5327C34.413 32.0034 34.7937 32.3666 35.1744 32.6218C35.5551 32.8775 35.9307 33.0376 36.3012 33.1027C36.672 33.1682 37.0315 33.1496 37.38 33.0472C37.7285 32.9444 38.0548 32.7699 38.359 32.5235Z" fill="white"/>
<path d="M51.6074 26.5859L49.2617 27.6388L42.9835 22.4113L45.9853 29.109L44.2895 29.87L40.293 20.9524L42.6387 19.8996L48.911 25.1143L45.9151 18.429L47.6109 17.668L51.6074 26.5855V26.5859Z" fill="white"/>
<path d="M55.2436 24.1787L58.9703 23.4323L59.2745 24.954L53.6297 26.0844L51.7148 16.5005L57.3596 15.3701L57.3487 16.9551L53.9373 17.6383L54.4058 19.9829L57.8172 19.2997L58.1211 20.8215L54.7097 21.5046L55.244 24.1783L55.2436 24.1787Z" fill="white"/>
<path d="M63.6859 21.0004L60.3594 15.1841L62.3712 15.217L64.7212 19.2552L67.1905 15.296L69.2162 15.3293L65.5858 21.0315L65.5229 24.8064L63.623 24.7753L63.6859 21.0004Z" fill="white"/>
<path d="M81.6459 25.5466C81.4653 26.0564 81.2049 26.4488 80.8651 26.7238C80.5254 26.9992 80.1417 27.1821 79.7142 27.2724C79.2867 27.3631 78.8274 27.3759 78.3369 27.3104C77.8461 27.2453 77.3638 27.1283 76.8898 26.9601L74.2168 26.0118L77.4845 16.7998L80.3418 17.8136C80.7894 17.9723 81.1972 18.1665 81.5658 18.3961C81.9341 18.6258 82.2314 18.8946 82.4582 19.2025C82.6849 19.5105 82.829 19.8634 82.8904 20.2609C82.9519 20.6588 82.9014 21.1006 82.7387 21.587L82.7339 21.6002C82.581 22.0306 82.3645 22.3349 82.0844 22.5123C81.8039 22.6896 81.5278 22.7997 81.2561 22.8414C80.9309 22.8944 80.5938 22.8835 80.2449 22.8089C80.6241 22.9932 80.9394 23.2185 81.1906 23.4858C81.4071 23.7111 81.579 23.9923 81.7066 24.3291C81.8339 24.6663 81.8167 25.0631 81.6547 25.5199L81.6452 25.5462L81.6459 25.5466ZM77.8432 25.6516C78.0363 25.7199 78.2312 25.762 78.4287 25.7777C78.6255 25.7935 78.8131 25.773 78.9912 25.7177C79.1689 25.6622 79.3269 25.5649 79.4652 25.4259C79.6034 25.2869 79.7146 25.099 79.7987 24.8616C79.8828 24.6243 79.9135 24.4052 79.8909 24.2044C79.8682 24.0036 79.8031 23.8244 79.6959 23.6679C79.5884 23.511 79.4465 23.3742 79.271 23.2576C79.0951 23.1409 78.9016 23.0451 78.6909 22.9701L77.5324 22.5591L76.5928 25.2079L77.8436 25.6516H77.8432ZM78.0184 21.1884L79.1901 21.6042C79.3481 21.6601 79.5131 21.6964 79.6853 21.7132C79.8572 21.7296 80.0211 21.7135 80.1768 21.6649C80.3323 21.6163 80.4731 21.5325 80.5992 21.414C80.7251 21.2955 80.8242 21.1353 80.8958 20.9331C80.9708 20.7221 80.9964 20.5312 80.9734 20.3597C80.95 20.1881 80.8925 20.0367 80.8011 19.9055C80.7093 19.7742 80.585 19.6582 80.4277 19.558C80.2705 19.4578 80.0997 19.3748 79.9154 19.3097L78.8226 18.922L78.0184 21.1887V21.1884Z" fill="white"/>
<path d="M88.1117 30.1079L84.9965 28.1067L83.0447 29.5951L81.2578 28.4475L89.5592 22.1631L91.6163 23.4844L89.3569 33.6502L87.57 32.5026L88.1113 30.1079H88.1117ZM88.5227 28.2778C88.6335 27.7951 88.729 27.3745 88.8098 27.0161C88.8903 26.6581 88.9751 26.2803 89.064 25.8831C89.1529 25.486 89.2297 25.1422 89.2948 24.8515L87.886 25.9076C87.7123 26.04 87.5401 26.1702 87.3693 26.2986C87.1981 26.4269 87.0478 26.5407 86.9176 26.6402C86.7874 26.7393 86.6444 26.8497 86.489 26.9715L88.5227 28.2778Z" fill="white"/>
<path d="M100.145 30.6273C100.392 30.8811 100.606 31.1374 100.787 31.3967C100.967 31.656 101.119 31.8956 101.241 32.1146C101.383 32.367 101.505 32.6058 101.607 32.8314L100.515 33.8946C100.356 33.5299 100.165 33.1734 99.942 32.8241C99.7197 32.4752 99.4684 32.1669 99.189 31.9C98.9092 31.6326 98.6057 31.4179 98.2787 31.2552C97.9514 31.0928 97.6 31.0124 97.2248 31.0142C96.8492 31.016 96.4509 31.1144 96.03 31.3101C95.6087 31.5057 95.1713 31.8246 94.7174 32.2668C94.2566 32.7155 93.9227 33.1478 93.7165 33.5636C93.5098 33.9794 93.3986 34.3766 93.3837 34.7555C93.3683 35.1343 93.4378 35.4894 93.5914 35.8211C93.7446 36.1525 93.9549 36.4586 94.2211 36.7391C94.4874 37.0192 94.7953 37.2723 95.1446 37.4976C95.4938 37.7232 95.8552 37.9138 96.2285 38.0703L95.1267 39.1433C94.8908 39.0478 94.6487 38.9261 94.4003 38.778C94.178 38.6562 93.9395 38.5015 93.6854 38.3139C93.4308 38.1259 93.1803 37.905 92.9335 37.6515C92.7126 37.4244 92.5005 37.163 92.2968 36.8671C92.0934 36.5709 91.923 36.2494 91.7862 35.9016C91.6491 35.5538 91.5606 35.1819 91.52 34.7858C91.479 34.3897 91.5079 33.975 91.6063 33.5413C91.7043 33.1075 91.8886 32.6617 92.1581 32.2039C92.428 31.746 92.8066 31.2797 93.2941 30.805C93.775 30.3369 94.2475 29.9741 94.7123 29.7163C95.1768 29.4588 95.6273 29.2866 96.0632 29.2003C96.4992 29.1136 96.9143 29.096 97.3092 29.1472C97.7035 29.1984 98.0747 29.2957 98.4217 29.4387C98.7688 29.5817 99.0873 29.7587 99.3781 29.9701C99.6685 30.1815 99.9237 30.4005 100.145 30.6276L100.145 30.6273Z" fill="white"/>
<path d="M99.7826 47.1792L98.6368 45.3246L100.641 40.7492L100.134 39.9289L96.6389 42.0913L95.6621 40.5104L103.973 35.3691L104.95 36.9501L101.454 39.1126L101.968 39.9446L106.874 40.0645L108.035 41.9429L102.091 41.6594L99.7826 47.1792Z" fill="white"/>
<path d="M64.0019 98.671C83.0913 98.671 98.5663 83.186 98.5663 64.0843C98.5663 44.9826 83.0913 29.4976 64.0019 29.4976C44.9125 29.4976 29.4375 44.9826 29.4375 64.0843C29.4375 83.186 44.9125 98.671 64.0019 98.671Z" fill="white"/>
<path d="M64.0012 9.79923C67.6832 9.79923 71.3623 10.1704 74.9361 10.9022C78.418 11.615 81.8429 12.6792 85.1161 14.0642C88.33 15.4243 91.4301 17.108 94.3299 19.0686C97.2029 21.0109 99.9044 23.2414 102.36 25.6983C104.815 28.1552 107.044 30.8589 108.986 33.7338C110.945 36.6357 112.628 39.7377 113.987 42.9542C115.371 46.2291 116.435 49.6566 117.147 53.1411C117.879 56.7174 118.249 60.3991 118.249 64.084C118.249 67.769 117.879 71.4502 117.147 75.0269C116.435 78.5115 115.371 81.9389 113.987 85.2139C112.628 88.43 110.945 91.5323 108.986 94.4343C107.045 97.3092 104.815 100.013 102.36 102.47C99.9044 104.927 97.2026 107.157 94.3299 109.099C91.4298 111.06 88.33 112.744 85.1161 114.104C81.8433 115.489 78.4184 116.553 74.9361 117.266C71.3623 117.998 67.6832 118.369 64.0012 118.369C60.3192 118.369 56.6401 117.998 53.0663 117.266C49.5844 116.553 46.1595 115.489 42.8863 114.104C39.6724 112.744 36.5723 111.06 33.6725 109.099C30.7995 107.157 28.0979 104.927 25.6425 102.47C23.1871 100.013 20.9581 97.3092 19.0169 94.4343C17.0577 91.5323 15.3747 88.4304 14.0154 85.2139C12.6311 81.9386 11.5676 78.5115 10.8552 75.0269C10.1238 71.4506 9.75296 67.769 9.75296 64.084C9.75296 60.3991 10.1238 56.7178 10.8552 53.1411C11.5676 49.6566 12.6311 46.2291 14.0154 42.9542C15.3747 39.7381 17.0574 36.6357 19.0169 33.7338C20.9577 30.8589 23.1871 28.1555 25.6425 25.6983C28.0979 23.2414 30.7995 21.0106 33.6725 19.0686C36.5726 17.108 39.6724 15.4243 42.8863 14.0642C46.1591 12.6789 49.584 11.615 53.0663 10.9022C56.6401 10.1704 60.3192 9.79923 64.0012 9.79923ZM64.0012 7.66602C32.8624 7.66602 7.61938 32.9252 7.61938 64.084C7.61938 95.2429 32.8624 120.502 64.0012 120.502C95.1399 120.502 120.383 95.2429 120.383 64.084C120.383 32.9252 95.1399 7.66602 64.0012 7.66602Z" fill="white"/>
<path d="M43.0326 74.6594H39.3626V57.2572H35.6426V54.265L43.0326 53.5098V74.6598V74.6594Z" fill="#2C0D4C"/>
<path d="M58.4888 66.4228C58.4888 69.2217 57.9336 71.345 56.8237 72.7925C55.7134 74.2404 54.2114 74.9641 52.3181 74.9641C50.4248 74.9641 48.8954 74.2404 47.7811 72.7925C46.6667 71.345 46.1094 69.2217 46.1094 66.4228V61.76C46.1094 58.971 46.6645 56.8481 47.7748 55.3903C48.8848 53.933 50.3908 53.2041 52.2929 53.2041C54.195 53.2041 55.6926 53.933 56.8113 55.3903C57.93 56.8481 58.4892 58.971 58.4892 61.76V66.4228H58.4888ZM54.8317 61.3197C54.8317 59.6462 54.6137 58.4196 54.1781 57.6406C53.7422 56.862 53.1139 56.4725 52.2929 56.4725C51.4718 56.4725 50.8351 56.8594 50.4076 57.6333C49.9805 58.4071 49.7665 59.6359 49.7665 61.3193V66.8193C49.7665 68.5224 49.9823 69.7607 50.4138 70.5346C50.8454 71.3084 51.4799 71.6957 52.3177 71.6957C53.1556 71.6957 53.763 71.3088 54.1906 70.5346C54.6177 69.7607 54.8317 68.5224 54.8317 66.8193V61.3193V61.3197Z" fill="#2C0D4C"/>
<path d="M73.2564 66.4228C73.2564 69.2217 72.7012 71.345 71.5913 72.7925C70.481 74.2404 68.979 74.9641 67.0857 74.9641C65.1924 74.9641 63.663 74.2404 62.5486 72.7925C61.4343 71.345 60.877 69.2217 60.877 66.4228V61.76C60.877 58.971 61.4321 56.8481 62.5424 55.3903C63.6524 53.933 65.1584 53.2041 67.0605 53.2041C68.9625 53.2041 70.4601 53.933 71.5789 55.3903C72.6976 56.8481 73.2567 58.971 73.2567 61.76V66.4228H73.2564ZM69.5989 61.3197C69.5989 59.6462 69.3809 58.4196 68.9453 57.6406C68.5098 56.862 67.8811 56.4725 67.0601 56.4725C66.2391 56.4725 65.6023 56.8594 65.1748 57.6333C64.7477 58.4071 64.5337 59.6359 64.5337 61.3193V66.8193C64.5337 68.5224 64.7495 69.7607 65.181 70.5346C65.6126 71.3084 66.2471 71.6957 67.085 71.6957C67.9228 71.6957 68.5303 71.3088 68.9578 70.5346C69.3849 69.7607 69.5985 68.5224 69.5985 66.8193V61.3193L69.5989 61.3197Z" fill="#2C0D4C"/>
<path d="M75.6445 57.5766C75.6445 56.3273 75.9942 55.2865 76.6941 54.4534C77.3937 53.6207 78.3676 53.2041 79.6162 53.2041C80.8647 53.2041 81.8617 53.6181 82.5573 54.4461C83.2525 55.274 83.6003 56.3178 83.6003 57.5766V58.6949C83.6003 59.9442 83.2525 60.9807 82.5573 61.8035C81.8617 62.6267 80.89 63.0382 79.6414 63.0382C78.3929 63.0382 77.4044 62.6267 76.7004 61.8035C75.9964 60.9807 75.6445 59.9442 75.6445 58.6949V57.5766ZM78.0828 58.6949C78.0828 59.2567 78.2166 59.7288 78.485 60.1113C78.7531 60.4939 79.1386 60.6852 79.6414 60.6852C80.1443 60.6852 80.5023 60.4939 80.7664 60.1113C81.0304 59.7288 81.1624 59.2567 81.1624 58.6949V57.5766C81.1624 57.0152 81.0282 56.538 80.7601 56.1459C80.4917 55.7539 80.1106 55.5575 79.6166 55.5575C79.1225 55.5575 78.7432 55.7535 78.4792 56.1459C78.2151 56.538 78.0831 57.0152 78.0831 57.5766V58.6949H78.0828ZM80.2445 73.0756L78.4598 71.9861L87.3957 55.4554L89.1804 56.5449L80.2445 73.0756ZM84.3921 69.4729C84.3921 68.2335 84.7439 67.1974 85.4479 66.3643C86.1515 65.5316 87.1276 65.115 88.3761 65.115C89.6247 65.115 90.611 65.529 91.3106 66.357C92.0103 67.185 92.3602 68.2236 92.3602 69.4729V70.5913C92.3602 71.8504 92.0124 72.8912 91.3172 73.7145C90.6216 74.5377 89.6499 74.9491 88.4014 74.9491C87.1528 74.9491 86.1621 74.5351 85.4541 73.7071C84.7461 72.8792 84.3921 71.8405 84.3921 70.5913V69.4729ZM86.8303 70.5913C86.8303 71.1431 86.9747 71.6153 87.264 72.0077C87.5529 72.4001 87.9322 72.5961 88.4014 72.5961C88.9459 72.5961 89.3354 72.4147 89.5702 72.0516C89.8046 71.6884 89.922 71.2016 89.922 70.5916V69.4733C89.922 68.9214 89.7878 68.4493 89.5197 68.0569C89.2513 67.6648 88.8702 67.4684 88.3761 67.4684C87.8821 67.4684 87.49 67.6644 87.226 68.0569C86.9619 68.4493 86.8303 68.921 86.8303 69.4733V70.5916V70.5913Z" fill="#2C0D4C"/>
</g>
<defs>
<clipPath id="clip0_8801_3886">
<rect width="128" height="128" fill="white" transform="translate(0 0.000976562)"/>
</clipPath>
</defs>
</svg>
